<svg xmlns="http://www.w3.org/2000/svg" x="0px" y="0px"
width="24" height="24"
viewBox="0 0 172 172"
style=" fill:#000000;"><g fill="none" fill-rule="nonzero" stroke="none" stroke-width="1" stroke-linecap="butt" stroke-linejoin="miter" stroke-miterlimit="10" stroke-dasharray="" stroke-dashoffset="0" font-family="none" font-weight="none" font-size="none" text-anchor="none" style="mix-blend-mode: normal"><path d="M0,172v-172h172v172z" fill="none"></path><path d="M86,172c-47.49649,0 -86,-38.50351 -86,-86v0c0,-47.49649 38.50351,-86 86,-86v0c47.49649,0 86,38.50351 86,86v0c0,47.49649 -38.50351,86 -86,86z" fill="#1c52b9"></path><g fill="#ffffff"><circle cx="14.11765" cy="9.02941" transform="scale(6.09167,6.09167)" r="5" opacity="0.35"></circle><path d="M122.55,103.7375h-73.1c-10.09389,0 -18.275,8.18111 -18.275,18.275c0,10.09389 8.18111,18.275 18.275,18.275h73.1c10.09389,0 18.275,-8.18111 18.275,-18.275c0,-10.09389 -8.18111,-18.275 -18.275,-18.275z"></path></g></g></svg>